# File produced by Open Asset Import Library (http://www.assimp.sf.net)
# (assimp v3.1.187496374)

mtllib Pieza2.obj.mtl

# 6 vertex positions
v  0 0 1
v  25 43.3013 1
v  0 0 -4.33681e-16
v  25 43.3013 -4.33681e-16
v  50 0 1
v  50 0 -4.33681e-16

# 0 UV coordinates

# 5 vertex normals
vn -0.866025 0.5 0
vn 0.866025 0.5 0
vn 0 -1 0
vn 0 0 -1
vn 0 0 1

# Mesh '<STL_BINARY>' with 8 faces
g <STL_BINARY>
usemtl DefaultMaterial
f  1//1 2//1 3//1
f  2//1 4//1 3//1
f  4//2 5//2 6//2
f  4//2 2//2 5//2
f  6//3 1//3 3//3
f  5//3 1//3 6//3
f  4//4 6//4 3//4
f  5//5 2//5 1//5

